<svg xmlns="http://www.w3.org/2000/svg" width="15" height="15"><path style="stroke:none;fill-rule:nonzero;fill:red;fill-opacity:1" d="M13.844 4.77c.12-.36.187-.743.187-1.141 0-2-1.625-3.629-3.629-3.629A3.614 3.614 0 0 0 7.66 1.262l-.16-.086L0 5.422V15h15V5.422ZM10.402.484a3.147 3.147 0 0 1 3.145 3.145 3.147 3.147 0 0 1-3.145 3.144 3.125 3.125 0 0 1-1.597-.441l-.09-.055-1.348.387.383-1.344-.05-.09a3.15 3.15 0 0 1-.442-1.601A3.147 3.147 0 0 1 10.402.484ZM7.22 1.887a3.653 3.653 0 0 0-.446 1.742c0 .613.157 1.219.457 1.754l-.566 1.984 1.984-.566c.54.3 1.141.457 1.754.457 1.43 0 2.668-.832 3.258-2.04l.66.376-6.82 5.23-6.82-5.23ZM.484 6.055 5.488 9.89.484 14.227Zm.407 8.46 4.992-4.324L7.5 11.434l1.617-1.243 4.992 4.325Zm13.625-.288L9.512 9.89l5.004-3.836Zm0 0"/><path style="stroke:none;fill-rule:nonzero;fill:rgb(245, 14, 14);fill-opacity:1" d="M9.832 6.23c.191.04.379.06.57.06a2.65 2.65 0 0 0 1.067-.224l-.196-.441a2.172 2.172 0 0 1-3.02-1.633 2.208 2.208 0 0 1 .556-1.847 2.178 2.178 0 0 1 3.738 1.871.722.722 0 0 1-.715.582.22.22 0 0 1-.219-.22v-.991a1.209 1.209 0 0 0-2.418 0v.484c0 .668.54 1.211 1.207 1.211h.727v-.484h-.727a.73.73 0 0 1-.726-.727v-.484a.728.728 0 0 1 1.453 0v.992c0 .387.316.703.703.703.586 0 1.09-.414 1.191-.984.051-.282.055-.575.012-.868A2.676 2.676 0 0 0 10.641.98a2.646 2.646 0 0 0-2.188.836 2.67 2.67 0 0 0-.676 2.25A2.655 2.655 0 0 0 9.832 6.23ZM7.258 12.098h.484v.484h-.484ZM8.227 12.098h.48v.484h-.48ZM6.293 12.098h.48v.484h-.48Zm0 0"/></svg>