<svg xmlns="http://www.w3.org/2000/svg" width="15" height="15"><path style="stroke:none;fill-rule:nonzero;fill:rgb(22, 184, 176);fill-opacity:1" d="M11.766 7.613a.383.383 0 0 0-.266.653c.07.07.168.109.266.109.105 0 .203-.04.273-.11a.406.406 0 0 0 .11-.269c0-.101-.044-.2-.11-.27a.384.384 0 0 0-.273-.113ZM8.207 3.18a.376.376 0 0 0 .371.457.38.38 0 1 0-.371-.457ZM10.922 4.664a.378.378 0 0 0-.102.527.378.378 0 0 0 .532.102.386.386 0 0 0 .101-.531.39.39 0 0 0-.531-.098ZM9.707 3.656a.378.378 0 0 0 .102.528.388.388 0 0 0 .531-.105.378.378 0 0 0-.102-.528.383.383 0 0 0-.531.105ZM11.371 6.5c.04.184.2.3.371.3.024 0 .051 0 .078-.007a.383.383 0 0 0 .297-.45.381.381 0 0 0-.449-.296.39.39 0 0 0-.297.453ZM7.008 2.852a.4.4 0 0 0-.274.109.389.389 0 0 0 0 .54c.07.07.168.112.274.112a.383.383 0 0 0 .265-.113.36.36 0 0 0 .114-.266.371.371 0 0 0-.114-.273.396.396 0 0 0-.265-.11ZM14.523 7.707a.384.384 0 0 0-.273.11.399.399 0 0 0-.11.269c0 .101.044.2.11.27.07.07.168.109.273.109.098 0 .2-.04.266-.11a.385.385 0 0 0 .113-.27c0-.1-.043-.198-.113-.269a.37.37 0 0 0-.266-.109ZM14.27 3.824a.38.38 0 0 0-.68.34c.066.133.2.207.34.207a.377.377 0 0 0 .168-.039c.191-.09.27-.32.172-.508ZM10.84 1.41a.377.377 0 0 0 .512-.168.377.377 0 0 0-.172-.508.378.378 0 0 0-.512.172c-.09.184-.02.41.172.504ZM8.297.766h.015a.386.386 0 0 0 .383-.368.384.384 0 0 0-.37-.394.374.374 0 0 0-.391.363.386.386 0 0 0 .363.399ZM9.602.953a.385.385 0 0 0 .464-.273.376.376 0 0 0-.277-.461.379.379 0 0 0-.465.273c-.047.2.074.406.278.461ZM13.473 2.578a.38.38 0 0 0-.54-.055.374.374 0 0 0-.054.532.376.376 0 0 0 .531.062.385.385 0 0 0 .063-.539ZM14.238 6.703c.008.207.18.371.38.371h.015a.38.38 0 1 0-.027-.762.372.372 0 0 0-.368.391ZM14.418 5.688a.284.284 0 0 0 .098-.016.379.379 0 0 0 .273-.461.384.384 0 0 0-.46-.277.38.38 0 0 0-.274.464c.039.172.195.29.363.29ZM11.945 2.125a.373.373 0 0 0 .532-.059.376.376 0 0 0-.055-.535.385.385 0 0 0-.54.059.384.384 0 0 0 .063.535ZM6.918.86c.102 0 .2-.044.27-.11a.399.399 0 0 0 .109-.27c0-.101-.043-.199-.11-.27a.381.381 0 0 0-.269-.108.374.374 0 0 0-.27.109.385.385 0 0 0-.113.27c0 .101.043.199.113.269a.36.36 0 0 0 .27.11ZM10.813 9.82c-.29-.285-.626-.437-.981-.437-.352 0-.687.152-.973.43l-.074.074c-.281.277-.566.558-.844.847-.054-.027-.105-.054-.16-.078-.129-.066-.25-.125-.36-.195-.847-.531-1.628-1.242-2.382-2.168-.36-.445-.617-.84-.789-1.238.246-.235.484-.485.723-.723l.183-.184c.602-.601.598-1.378-.004-1.984-.18-.18-.363-.367-.539-.539-.082-.082-.16-.16-.234-.238-.086-.082-.168-.168-.254-.25-.18-.18-.363-.367-.55-.551-.286-.285-.626-.434-.977-.434-.352 0-.688.149-.973.434-.137.133-.27.27-.402.402-.192.192-.387.395-.59.582-.371.352-.582.801-.621 1.332-.067.832.168 1.582.375 2.145.472 1.27 1.191 2.469 2.199 3.672a13.757 13.757 0 0 0 4.508 3.527c.957.461 1.773.7 2.57.746.063 0 .117.004.176.004.68 0 1.238-.238 1.66-.707.18-.203.371-.39.574-.59.106-.101.211-.203.317-.308.593-.602.597-1.38.007-1.977a102.177 102.177 0 0 0-1.585-1.594Zm1.046 3.028c-.097.097-.203.199-.304.297-.203.199-.418.402-.614.625-.304.34-.687.48-1.222.453-.692-.04-1.422-.25-2.278-.668a12.995 12.995 0 0 1-4.257-3.328c-.954-1.137-1.63-2.262-2.07-3.45-.27-.726-.372-1.285-.333-1.82a1.2 1.2 0 0 1 .39-.84c.208-.195.407-.398.602-.597.13-.13.262-.266.395-.391.098-.098.25-.215.441-.215.188 0 .34.117.442.215.183.18.37.363.547.543.082.086.168.168.254.254.078.082.156.16.238.234.176.18.36.36.535.54.305.308.309.605.008.913l-.188.188c-.258.258-.523.527-.789.785-.136.129-.273.355-.136.68.207.496.507.976.94 1.511.81.993 1.65 1.758 2.571 2.332.14.094.29.164.434.235.078.039.16.078.234.12.098.056.2.079.297.079a.59.59 0 0 0 .43-.2c.3-.308.605-.609.906-.91l.078-.074c.098-.097.254-.21.438-.21.183 0 .343.117.441.21l1.59 1.586c.277.297.277.602-.02.903Zm0 0"/></svg>