<svg xmlns="http://www.w3.org/2000/svg" width="20" height="20" viewBox="0 0 20 20"><path style="stroke:none;fill-rule:nonzero;fill:rgb(255, 255, 255);fill-opacity:1" d="M10 .152C4.562.152.152 4.562.152 10c0 5.438 4.41 9.848 9.848 9.848 5.438 0 9.848-4.41 9.848-9.848 0-5.438-4.41-9.848-9.848-9.848Zm4.93 7.317.008.328c0 3.894-2.56 7.242-7.239 7.242a7.2 7.2 0 0 1-3.902-1.144c.2.023.402.035.605.035a5.085 5.085 0 0 0 3.16-1.09c-1.113-.02-2.03-.7-2.355-1.711.395.066.867.012 1.129-.098a2.55 2.55 0 0 1-2.04-2.496c.345.192.735.274 1.153.29a2.542 2.542 0 0 1-1.133-2.118c0-.469.125-.906.344-1.281a7.235 7.235 0 0 0 5.246 2.66 2.546 2.546 0 0 1 2.48-3.125c.731 0 1.348.309 1.778.727.48-.016 1.145-.25 1.695-.54a2.567 2.567 0 0 1-1.117 1.407c.512-.02.953-.13 1.41-.328-.34.507-.722.886-1.222 1.242Zm0 0"/></svg>