<svg xmlns="http://www.w3.org/2000/svg" width="20" height="px" viewBox="0 0 20 20"><path style="stroke:none;fill-rule:nonzero;fill:rgb(255, 255, 255);fill-opacity:1" d="M9.973 0C4.465 0 0 4.465 0 9.973c0 5.511 4.465 9.976 9.973 9.976a9.974 9.974 0 0 0 9.976-9.976C19.95 4.465 15.484 0 9.973 0ZM6.238 16.727H3.434v-9.02h2.804ZM4.836 6.473A1.624 1.624 0 0 1 3.21 4.848a1.624 1.624 0 1 1 1.625 1.625Zm11.902 10.254h-2.8V12.34c0-1.047-.02-2.39-1.458-2.39-1.457 0-1.683 1.136-1.683 2.316v4.46h-2.8V7.708h2.687v1.23h.039c.375-.707 1.289-1.457 2.652-1.457 2.84 0 3.363 1.872 3.363 4.297Zm0 0"/></svg>