<svg xmlns="http://www.w3.org/2000/svg" width="20" height="px" viewBox="0 0 20 20"><path style="stroke:none;fill-rule:nonzero;fill:rgb(255, 255, 255);fill-opacity:1" d="M12.66 4.922H7.34A2.422 2.422 0 0 0 4.922 7.34v5.32a2.422 2.422 0 0 0 2.418 2.418h5.32a2.422 2.422 0 0 0 2.418-2.418V7.34a2.422 2.422 0 0 0-2.418-2.418ZM10 13.16A3.164 3.164 0 0 1 6.84 10 3.164 3.164 0 0 1 10 6.84 3.164 3.164 0 0 1 13.16 10 3.164 3.164 0 0 1 10 13.16Zm3.246-5.676a.738.738 0 1 1 0-1.477.739.739 0 1 1 0 1.477ZM10 7.914A2.09 2.09 0 0 0 7.914 10 2.09 2.09 0 0 0 10 12.086 2.09 2.09 0 0 0 12.086 10 2.09 2.09 0 0 0 10 7.914Zm0-7.762C4.562.152.152 4.562.152 10c0 5.438 4.41 9.848 9.848 9.848 5.438 0 9.848-4.41 9.848-9.848 0-5.438-4.41-9.848-9.848-9.848Zm6.152 12.508a3.496 3.496 0 0 1-3.492 3.492H7.34a3.496 3.496 0 0 1-3.492-3.492V7.34A3.496 3.496 0 0 1 7.34 3.848h5.32a3.496 3.496 0 0 1 3.492 3.492Zm0 0"/></svg>